<?xml version="1.0" encoding="utf-8"?>
<!-- Generator: Adobe Illustrator 24.0.0, SVG Export Plug-In . SVG Version: 6.00 Build 0)  -->
<svg version="1.1" id="Layer_1" xmlns="http://www.w3.org/2000/svg" xmlns:xlink="http://www.w3.org/1999/xlink" x="0px" y="0px"
	 viewBox="0 0 33 33" style="enable-background:new 0 0 33 33;" xml:space="preserve">
<style type="text/css">
	.st0{fill:#FFFFFF;}
	.st1{fill:#FCB729;}
</style>
<title>civis-logo-color-rgb</title>
<desc>Created with Sketch.</desc>
<g id="Symbols">
	<g id="civis-logo">
		<g id="civis-logo-color-rgb">
			<path id="Shape" class="st0" d="M16.5,6c-5,0-9.3,3.7-10.3,8.8S7.9,25,12.6,27v-3c-3.1-1.8-4.6-5.6-3.7-9.2s4-6.1,7.6-6.1
				s6.7,2.5,7.6,6.1c0.9,3.6-0.6,7.3-3.7,9.2v3c4.7-2,7.3-7.1,6.4-12.2C25.8,9.7,21.5,6,16.5,6L16.5,6z"/>
			<path id="Shape_1_" class="st1" d="M22,16.7c0-2.9-2.2-5.4-5-5.6s-5.4,1.8-5.9,4.7c-0.5,2.9,1.3,5.7,4,6.4v5.8
				c0.9,0.1,1.8,0.1,2.8,0v-5.8C20.3,21.5,22,19.2,22,16.7z M16.5,19.5c-1.1,0-2.1-0.7-2.5-1.7c-0.4-1.1-0.2-2.3,0.6-3.1
				c0.8-0.8,2-1.1,3-0.6c1,0.4,1.7,1.5,1.7,2.6C19.3,18.2,18,19.5,16.5,19.5z"/>
			<path id="Shape_2_" class="st0" d="M4.8,28.2c5.9,5.9,15.2,6.5,21.8,1.4s8.3-14.3,4.1-21.4l-2,2c3.1,6,1.4,13.4-4.1,17.4
				S11.6,31,6.8,26.2S1.4,13.8,5.4,8.4s11.4-7.2,17.4-4.1l2-2C17.7-1.9,8.5-0.2,3.5,6.4S-1,22.3,4.8,28.2z"/>
		</g>
	</g>
</g>
</svg>
